<svg xmlns="http://www.w3.org/2000/svg" viewBox="0 0 900 640" role="img" aria-labelledby="title desc"><title id="title">Sand Hill Road venture capital map</title><desc id="desc">A road-shaped venture capital lifecycle diagram.</desc><rect width="900" height="640" rx="24" fill="#fffdf8"/><path d="M108 500 C218 412 218 238 348 198 C466 162 500 328 626 276 C714 240 742 142 806 98" fill="none" stroke="#14213d" stroke-width="82" stroke-linecap="round"/><path d="M108 500 C218 412 218 238 348 198 C466 162 500 328 626 276 C714 240 742 142 806 98" fill="none" stroke="#f7f5ef" stroke-width="36" stroke-linecap="round" stroke-dasharray="36 34"/><g font-family="Microsoft YaHei, Arial, sans-serif" font-weight="800"><rect x="66" y="450" width="152" height="72" rx="10" fill="#ffffff" stroke="#ded8cc"/><text x="96" y="494" font-size="21" fill="#d86f25">LP 出资</text><rect x="260" y="124" width="152" height="72" rx="10" fill="#ffffff" stroke="#ded8cc"/><text x="300" y="168" font-size="21" fill="#2454a6">VC 投资</text><rect x="514" y="294" width="152" height="72" rx="10" fill="#ffffff" stroke="#ded8cc"/><text x="546" y="338" font-size="21" fill="#1b7f64">公司成长</text><rect x="690" y="54" width="152" height="72" rx="10" fill="#ffffff" stroke="#ded8cc"/><text x="728" y="98" font-size="21" fill="#14213d">退出回流</text></g><g font-family="Microsoft YaHei, Arial, sans-serif" fill="#14213d"><text x="72" y="86" font-size="34" font-weight="900">Secrets of Sand Hill Road</text><text x="74" y="128" font-size="20" fill="#5d6978">Know your partner before you get married.</text></g></svg>
